# xmcd
#
# Track frame offsets: 
#        150
#        20617
#        40418
#        55151
#        78416
#        98666
#        114747
#        134934
#        150115
#        176248
#
# Disc length: 2512 seconds
#
# Revision: 0
# Processed by: cddbd v1.5.2PL0 Copyright (c) Steve Scherf et al.
# Submitted via: ExactAudioCopy v1.3
#
DISCID=8209ce0a
DTITLE=Andreas Diehlmann Band - ADB
DYEAR=2017
DGENRE=Blues Rock
TTITLE0=Way Sown South
TTITLE1=Oh Well
TTITLE2=Come On And Get It
TTITLE3=Hard Times
TTITLE4=Opposites Attract
TTITLE5=Rock Me
TTITLE6=Full Grown Man
TTITLE7=Gonna Raise Hell
TTITLE8=Gone
TTITLE9=Rita
EXTD=
EXTT0=
EXTT1=
EXTT2=
EXTT3=
EXTT4=
EXTT5=
EXTT6=
EXTT7=
EXTT8=
EXTT9=
PLAYORDER=
